<mxfile host="app.diagrams.net" modified="2023-05-03T13:24:47.211Z" agent="Mozilla/5.0 (X11; Ubuntu; Linux x86_64; rv:109.0) Gecko/20100101 Firefox/112.0" version="21.2.1" etag="uzWNDiK4tKVeedwVXrd4" type="github">
  <diagram name="Page-1" id="x3eiahOUurULLriCeGxV">
    <mxGraphModel>
      <root>
        <mxCell id="0" />
        <mxCell id="1" parent="0" />
      </root>
    </mxGraphModel>
  </diagram>
</mxfile>
